<?xml version="1.0" standalone="no"?><svg xmlns="http://www.w3.org/2000/svg" viewBox="0 0 1440 320"><path fill="#f3f4f5" fill-opacity="1" d="M0,288L20,288C40,288,80,288,120,250.7C160,213,200,139,240,106.7C280,75,320,85,360,96C400,107,440,117,480,138.7C520,160,560,192,600,202.7C640,213,680,203,720,170.7C760,139,800,85,840,90.7C880,96,920,160,960,192C1000,224,1040,224,1080,208C1120,192,1160,160,1200,144C1240,128,1280,128,1320,154.7C1360,181,1400,235,1420,261.3L1440,288L1440,0L1420,0C1400,0,1360,0,1320,0C1280,0,1240,0,1200,0C1160,0,1120,0,1080,0C1040,0,1000,0,960,0C920,0,880,0,840,0C800,0,760,0,720,0C680,0,640,0,600,0C560,0,520,0,480,0C440,0,400,0,360,0C320,0,280,0,240,0C200,0,160,0,120,0C80,0,40,0,20,0L0,0Z"></path></svg>